<svg viewBox="0 0 512 512" xmlns="http://www.w3.org/2000/svg">
    <style>
        @media (prefers-color-scheme: dark) {
            .path {
                fill: #ffffff;
            }
        }
    </style>
    <path
        class="path"
        d="M508.494,249.727l-21.488,-13.312c-0.18,-2.087 -0.383,-4.173 -0.607,-6.255l18.464,-17.233c0.931,-0.853 1.626,-1.933 2.018,-3.133c0.394,-1.202 0.471,-2.483 0.224,-3.722c-0.245,-1.24 -0.806,-2.395 -1.627,-3.354c-0.822,-0.961 -1.877,-1.693 -3.064,-2.127l-23.616,-8.831c-0.589,-2.039 -1.201,-4.071 -1.839,-6.096l14.719,-20.464c0.74,-1.022 1.207,-2.216 1.354,-3.468c0.149,-1.252 -0.026,-2.521 -0.508,-3.687c-0.48,-1.166 -1.252,-2.19 -2.24,-2.973c-0.988,-0.784 -2.161,-1.301 -3.405,-1.504l-24.912,-4.048c-0.96,-1.888 -1.968,-3.743 -2.992,-5.6l10.464,-22.959c0.535,-1.146 0.764,-2.412 0.669,-3.673c-0.097,-1.26 -0.518,-2.475 -1.219,-3.527c-0.703,-1.052 -1.665,-1.905 -2.794,-2.477c-1.129,-0.571 -2.385,-0.843 -3.649,-0.788l-25.263,0.881c-1.308,-1.631 -2.642,-3.243 -4,-4.832l5.808,-24.624c0.294,-1.228 0.271,-2.511 -0.073,-3.726c-0.342,-1.215 -0.991,-2.321 -1.884,-3.214c-0.892,-0.892 -1.998,-1.541 -3.213,-1.884c-1.215,-0.343 -2.498,-0.366 -3.726,-0.072l-24.608,5.792c-1.6,-1.345 -3.2,-2.672 -4.848,-4l0.88,-25.247c0.055,-1.264 -0.216,-2.521 -0.787,-3.649c-0.572,-1.128 -1.425,-2.09 -2.477,-2.793c-1.052,-0.703 -2.267,-1.123 -3.528,-1.219c-1.26,-0.097 -2.526,0.134 -3.672,0.668l-22.96,10.464c-1.855,-1.024 -3.721,-2.027 -5.6,-3.008l-4.047,-24.896c-0.202,-1.243 -0.718,-2.414 -1.5,-3.402c-0.782,-0.989 -1.803,-1.761 -2.966,-2.243c-1.164,-0.482 -2.432,-0.66 -3.684,-0.514c-1.251,0.145 -2.444,0.607 -3.467,1.344l-20.48,14.719c-2.018,-0.641 -4.044,-1.254 -6.079,-1.84l-8.833,-23.615c-0.435,-1.185 -1.167,-2.238 -2.126,-3.059c-0.96,-0.82 -2.113,-1.381 -3.352,-1.628c-1.237,-0.248 -2.517,-0.173 -3.718,0.216c-1.202,0.389 -2.281,1.08 -3.139,2.007l-17.232,18.496l-0.001,-0.001c-2.08,-0.224 -4.16,-0.448 -6.255,-0.608l-13.312,-21.503c-0.663,-1.072 -1.587,-1.957 -2.688,-2.57c-1.101,-0.614 -2.34,-0.936 -3.6,-0.936c-1.26,0 -2.499,0.322 -3.6,0.936c-1.1,0.613 -2.025,1.498 -2.687,2.57l-13.312,21.503c-2.08,0.161 -4.177,0.384 -6.257,0.609l-17.232,-18.48c-0.862,-0.914 -1.943,-1.595 -3.139,-1.977c-1.198,-0.383 -2.473,-0.455 -3.705,-0.21c-1.234,0.244 -2.384,0.798 -3.344,1.609c-0.96,0.81 -1.699,1.852 -2.147,3.026l-8.833,23.615c-2.048,0.592 -4.08,1.216 -6.079,1.856l-20.48,-14.735c-1.019,-0.749 -2.214,-1.223 -3.469,-1.376c-1.256,-0.153 -2.529,0.02 -3.698,0.502c-1.17,0.483 -2.194,1.258 -2.976,2.252c-0.783,0.993 -1.295,2.172 -1.49,3.422l-4.063,24.911c-1.873,0.976 -3.728,1.984 -5.6,3.008l-22.944,-10.464c-1.145,-0.534 -2.408,-0.764 -3.668,-0.668c-1.26,0.096 -2.474,0.514 -3.526,1.215c-1.05,0.701 -1.903,1.66 -2.476,2.786c-0.573,1.126 -0.846,2.381 -0.795,3.644l0.881,25.279c-1.633,1.312 -3.248,2.639 -4.848,4l-24.608,-5.808c-1.227,-0.284 -2.505,-0.252 -3.716,0.094c-1.211,0.346 -2.314,0.994 -3.205,1.884c-0.891,0.89 -1.543,1.992 -1.89,3.202c-0.349,1.209 -0.383,2.488 -0.101,3.716l5.808,24.624c-1.359,1.6 -2.688,3.199 -4,4.832l-25.263,-0.881c-1.261,-0.046 -2.513,0.231 -3.636,0.806c-1.123,0.574 -2.081,1.426 -2.782,2.475c-0.7,1.049 -1.121,2.26 -1.222,3.517c-0.1,1.258 0.122,2.519 0.648,3.667l10.463,22.975c-1.008,1.841 -2.016,3.696 -2.991,5.6l-24.896,4.032c-1.247,0.2 -2.421,0.716 -3.411,1.499c-0.99,0.783 -1.764,1.805 -2.247,2.971c-0.483,1.167 -0.659,2.437 -0.511,3.692c0.147,1.253 0.613,2.448 1.353,3.47l14.719,20.464c-0.639,2.016 -1.247,4.048 -1.839,6.08l-23.616,8.847c-1.181,0.442 -2.229,1.177 -3.045,2.137c-0.816,0.96 -1.373,2.113 -1.618,3.349c-0.246,1.237 -0.171,2.514 0.217,3.713c0.387,1.199 1.075,2.279 1.998,3.137l18.48,17.233c-0.24,2.08 -0.448,4.16 -0.624,6.255l-21.488,13.312c-1.072,0.662 -1.957,1.588 -2.57,2.689c-0.614,1.1 -0.936,2.34 -0.936,3.599c0,1.26 0.322,2.5 0.936,3.6c0.613,1.1 1.498,2.026 2.57,2.688l21.488,13.296c0.176,2.096 0.384,4.192 0.624,6.272l-18.48,17.231c-0.923,0.86 -1.611,1.939 -1.998,3.138c-0.388,1.2 -0.463,2.477 -0.217,3.713c0.245,1.236 0.802,2.389 1.618,3.349c0.816,0.959 1.864,1.696 3.045,2.137l23.616,8.832c0.592,2.048 1.216,4.08 1.856,6.08l-14.736,20.479c-0.736,1.022 -1.199,2.216 -1.344,3.468c-0.145,1.251 0.032,2.519 0.514,3.682c0.482,1.164 1.254,2.185 2.243,2.968c0.988,0.781 2.159,1.297 3.403,1.498l24.896,4.049c0.975,1.887 1.967,3.759 3.007,5.599l-10.479,22.96c-0.526,1.147 -0.748,2.409 -0.648,3.666c0.101,1.258 0.522,2.469 1.222,3.518c0.701,1.049 1.659,1.901 2.782,2.475c1.123,0.574 2.375,0.852 3.636,0.805l25.263,-0.881c1.312,1.649 2.641,3.249 4,4.848l-5.808,24.624c-0.297,1.228 -0.273,2.514 0.069,3.73c0.344,1.218 0.994,2.325 1.889,3.217c0.895,0.892 2.005,1.54 3.224,1.878c1.218,0.338 2.502,0.358 3.73,0.056l24.608,-5.793c1.6,1.361 3.215,2.673 4.848,3.985l-0.881,25.279c-0.047,1.261 0.23,2.513 0.803,3.637c0.574,1.123 1.427,2.081 2.478,2.78c1.049,0.7 2.261,1.119 3.519,1.216c1.257,0.098 2.52,-0.128 3.665,-0.658l22.96,-10.462c1.84,1.024 3.711,2.032 5.6,3.007l4.047,24.879c0.194,1.251 0.706,2.43 1.487,3.425c0.781,0.995 1.805,1.772 2.973,2.258c1.168,0.485 2.442,0.662 3.698,0.513c1.256,-0.149 2.452,-0.618 3.475,-1.364l20.464,-14.751c2.015,0.64 4.047,1.28 6.079,1.856l8.833,23.616c0.433,1.187 1.166,2.241 2.125,3.062c0.96,0.823 2.115,1.384 3.354,1.629c1.239,0.247 2.522,0.169 3.722,-0.224c1.2,-0.393 2.28,-1.088 3.134,-2.019l17.248,-18.48c2.08,0.239 4.16,0.447 6.257,0.64l13.312,21.488c0.664,1.068 1.591,1.948 2.691,2.56c1.1,0.61 2.337,0.931 3.596,0.931c1.259,0 2.496,-0.321 3.596,-0.931c1.101,-0.612 2.027,-1.492 2.692,-2.56l13.295,-21.504c2.097,-0.177 4.193,-0.385 6.273,-0.624l17.232,18.48c0.854,0.927 1.932,1.618 3.131,2.01c1.199,0.39 2.478,0.467 3.716,0.221c1.236,-0.246 2.388,-0.805 3.347,-1.625c0.958,-0.819 1.69,-1.871 2.125,-3.054l8.849,-23.616c2.032,-0.576 4.064,-1.216 6.079,-1.856l20.48,14.751c1.025,0.733 2.219,1.192 3.47,1.333c1.252,0.142 2.519,-0.038 3.681,-0.521c1.163,-0.484 2.183,-1.256 2.964,-2.243c0.782,-0.987 1.297,-2.158 1.502,-3.401l4.063,-24.895c1.533,-0.786 3.056,-1.615 4.576,-2.444l0.004,-0.001c0.334,-0.183 0.67,-0.365 1.004,-0.546l22.96,10.462c1.146,0.531 2.41,0.758 3.669,0.658c1.26,-0.098 2.473,-0.518 3.523,-1.22c1.051,-0.702 1.902,-1.661 2.475,-2.787c0.573,-1.126 0.848,-2.379 0.797,-3.642l-0.88,-25.279c1.633,-1.28 3.248,-2.608 4.848,-3.969l24.608,5.793c1.227,0.298 2.509,0.277 3.724,-0.064c1.217,-0.34 2.324,-0.987 3.217,-1.878c0.894,-0.893 1.542,-1.999 1.885,-3.214c0.342,-1.215 0.366,-2.498 0.07,-3.725l-5.793,-24.624c1.345,-1.599 2.673,-3.199 3.985,-4.848l25.279,0.881c1.263,0.052 2.518,-0.221 3.644,-0.794c1.126,-0.573 2.085,-1.426 2.787,-2.477c0.7,-1.052 1.118,-2.265 1.215,-3.526c0.095,-1.26 -0.136,-2.522 -0.669,-3.667l-10.464,-22.96c1.024,-1.84 2.016,-3.712 2.992,-5.599l24.896,-4.049c1.248,-0.193 2.425,-0.704 3.418,-1.485c0.994,-0.78 1.77,-1.803 2.254,-2.969c0.484,-1.167 0.659,-2.439 0.509,-3.694c-0.15,-1.253 -0.621,-2.448 -1.366,-3.468l-14.719,-20.479c0.636,-2.02 1.249,-4.047 1.839,-6.08l23.616,-8.832c1.187,-0.435 2.242,-1.166 3.064,-2.126c0.821,-0.96 1.382,-2.114 1.627,-3.355c0.247,-1.238 0.17,-2.52 -0.224,-3.721c-0.392,-1.201 -1.087,-2.281 -2.018,-3.135l-18.48,-17.231c0.224,-2.08 0.431,-4.176 0.623,-6.272l21.488,-13.296c1.072,-0.662 1.957,-1.588 2.571,-2.688c0.613,-1.1 0.935,-2.34 0.935,-3.6c-0,-1.259 -0.322,-2.499 -0.935,-3.599c-0.614,-1.101 -1.499,-2.027 -2.571,-2.689Zm-143.854,178.302c-3.856,-0.937 -7.194,-3.342 -9.304,-6.702c-2.109,-3.361 -2.824,-7.412 -1.992,-11.292c0.831,-3.88 3.145,-7.281 6.446,-9.481c3.302,-2.201 7.333,-3.026 11.234,-2.3c3.87,0.924 7.225,3.328 9.346,6.694c2.122,3.367 2.841,7.431 2.005,11.321c-0.837,3.891 -3.162,7.3 -6.479,9.497c-3.318,2.198 -7.363,3.01 -11.272,2.263l0.016,0Zm-7.313,-49.392c-1.779,-0.379 -3.616,-0.406 -5.407,-0.077c-1.789,0.331 -3.496,1.01 -5.024,1.999c-1.527,0.99 -2.845,2.27 -3.877,3.769c-1.032,1.498 -1.759,3.186 -2.14,4.966l-7.632,35.616c-24.263,11.004 -50.604,16.678 -77.247,16.64c-28.16,-0 -54.88,-6.241 -78.864,-17.392l-7.631,-35.6c-0.379,-1.782 -1.105,-3.47 -2.135,-4.972c-1.032,-1.5 -2.349,-2.783 -3.878,-3.774c-1.526,-0.99 -3.235,-1.671 -5.025,-2.001c-1.791,-0.33 -3.629,-0.305 -5.411,0.076l-31.439,6.751c-28.604,-34.34 -58.262,-81.705 -51.744,-150.382l0.016,-0l32.752,-14.56c3.362,-1.498 5.991,-4.269 7.31,-7.704c1.32,-3.434 1.223,-7.253 -0.27,-10.617l-6.736,-15.247l-9.932,-22.634c34.134,-61.627 81.067,-81.573 128.268,-93.109l23.407,24.559c5.297,5.537 14.08,5.761 19.6,0.448l26.208,-25.054c7.024,1.318 13.952,3.035 20.748,5.136l0.644,210.266l-112.189,-171.254l-0,-0.396l-60.186,60.794l0,161.788l60.186,60.092l-0,-171.162l112.69,171.55l43.789,-43.803l-0.15,-0.229l16.459,-16.456l-0.402,-229.186c18.82,14.871 34.634,33.24 46.553,54.122l-17.936,40.511c-1.488,3.364 -1.582,7.182 -0.264,10.614c1.32,3.435 3.946,6.205 7.305,7.707l34.544,15.327c0.592,6.128 0.895,12.321 0.895,18.608l0.016,0c0,48.152 -19.976,96.913 -53.695,131.15l-32.16,-6.896l-0.016,0.016Zm-211.566,48.64c-3.901,0.726 -7.931,-0.099 -11.234,-2.3c-3.301,-2.2 -5.614,-5.601 -6.446,-9.481c-0.832,-3.88 -0.117,-7.931 1.994,-11.292c2.109,-3.36 5.446,-5.765 9.302,-6.702c1.956,-0.418 3.975,-0.447 5.942,-0.085c1.967,0.362 3.844,1.109 5.523,2.196c1.68,1.088 3.128,2.495 4.262,4.143c1.136,1.647 1.934,3.502 2.353,5.458c0.418,1.955 0.446,3.975 0.084,5.942c-0.362,1.967 -1.108,3.844 -2.195,5.524c-1.088,1.678 -2.495,3.126 -4.143,4.261c-1.647,1.135 -3.502,1.934 -5.458,2.352l0.016,-0.016Zm-58.031,-235.309c0.809,1.825 1.252,3.791 1.302,5.787c0.049,1.995 -0.294,3.982 -1.012,5.845c-0.717,1.863 -1.794,3.566 -3.17,5.013c-1.377,1.448 -3.024,2.608 -4.849,3.419c-1.824,0.81 -3.791,1.252 -5.788,1.302c-1.994,0.051 -3.981,-0.293 -5.844,-1.011c-1.863,-0.717 -3.567,-1.795 -5.014,-3.171c-1.447,-1.376 -2.607,-3.023 -3.418,-4.848c-1.635,-3.686 -1.74,-7.87 -0.292,-11.633c1.45,-3.763 4.335,-6.795 8.02,-8.431c3.686,-1.636 7.87,-1.741 11.633,-0.291c3.763,1.449 6.795,4.333 8.432,8.019Zm156.974,-142.479c1.445,-1.38 3.146,-2.463 5.009,-3.185c1.862,-0.722 3.849,-1.07 5.845,-1.024c1.998,0.046 3.966,0.485 5.794,1.293c1.827,0.807 3.477,1.967 4.856,3.412c1.381,1.448 2.462,3.153 3.184,5.019c0.721,1.866 1.067,3.855 1.021,5.855c-0.048,2 -0.49,3.971 -1.299,5.8c-0.809,1.83 -1.971,3.481 -3.418,4.862c-1.444,1.379 -3.145,2.46 -5.007,3.181c-1.861,0.72 -3.847,1.067 -5.843,1.02c-1.996,-0.048 -3.963,-0.489 -5.789,-1.298c-1.825,-0.807 -3.472,-1.968 -4.849,-3.415c-2.781,-2.922 -4.291,-6.829 -4.198,-10.862c0.093,-4.034 1.781,-7.866 4.694,-10.658Zm177.967,143.215c1.638,-3.686 4.673,-6.569 8.437,-8.017c3.764,-1.448 7.949,-1.341 11.635,0.298c3.685,1.636 6.569,4.671 8.017,8.436c1.447,3.764 1.34,7.949 -0.297,11.635c-0.812,1.825 -1.974,3.471 -3.422,4.847c-1.447,1.375 -3.152,2.452 -5.015,3.17c-1.864,0.716 -3.851,1.06 -5.847,1.008c-1.996,-0.05 -3.963,-0.495 -5.789,-1.305c-1.823,-0.812 -3.471,-1.974 -4.846,-3.421c-1.376,-1.449 -2.453,-3.153 -3.171,-5.017c-0.716,-1.863 -1.059,-3.85 -1.008,-5.846c0.051,-1.997 0.495,-3.964 1.306,-5.788Z"
        fill="#000000"
    />
</svg>
